# xmcd
#
# Track frame offsets:
#  150
#  26886
#  49546
#  77114
#  106969
#  127297
#  166995
#  190408
#  218438
#  248178
#  268063
#  295591
#  317496
#  344924
#
# Disc length: 4745 seconds
#
# Revision: 0
# Processed by: cddbd v1.5.1PL2 Copyright (c) Steve Scherf et al.
# Submitted via: Collectorz.com_Music_Collector 6.11
#
DISCID=d212870e
DTITLE=Santana - greatest hits
DYEAR=2001
DGENRE=blues
TTITLE0=esperando
TTITLE1=oye como va /el pito 
TTITLE2=guajira
TTITLE3=samba pa ti
TTITLE4=no one to  depend on
TTITLE5=black magic woman/gypsy queen
TTITLE6=ji-go-lo-ba
TTITLE7=europa
TTITLE8=your touch
TTITLE9=agua que va caer
TTITLE10=free all the people
TTITLE11=contigo (with you)
TTITLE12=en aranjuez con tu amor
TTITLE13=morning in marin
EXTD=
EXTT0=
EXTT1=
EXTT2=
EXTT3=
EXTT4=
EXTT5=
EXTT6=
EXTT7=
EXTT8=
EXTT9=
EXTT10=
EXTT11=
EXTT12=
EXTT13=
PLAYORDER=
